<svg class="animated" id="freepik_stories-road-cycling" xmlns="http://www.w3.org/2000/svg" viewBox="0 0 500 500" version="1.1" xmlns:xlink="http://www.w3.org/1999/xlink" xmlns:svgjs="http://svgjs.com/svgjs"><style>svg#freepik_stories-road-cycling:not(.animated) .animable {opacity: 0;}svg#freepik_stories-road-cycling.animated #freepik--Lines--inject-27 {animation: 3s Infinite  linear floating;animation-delay: 0s;}svg#freepik_stories-road-cycling.animated #freepik--Character--inject-27 {animation: 3s Infinite  linear floating;animation-delay: 0s;}            @keyframes floating {                0% {                    opacity: 1;                    transform: translateY(0px);                }                50% {                    transform: translateY(-10px);                }                100% {                    opacity: 1;                    transform: translateY(0px);                }            }        .animator-hidden { display: none; }</style><g id="freepik--Shadow--inject-27" class="animable" style="transform-origin: 250px 467.44px;"><path d="M458.88,467.44c0,3.39-93.52,6.13-208.88,6.13s-208.88-2.74-208.88-6.13,93.52-6.13,208.88-6.13S458.88,464.06,458.88,467.44Z" style="fill: rgb(245, 245, 245); transform-origin: 250px 467.44px;" id="elr7b0rx4azc" class="animable"></path></g><g id="freepik--Streetlight--inject-27" class="animable animator-hidden" style="transform-origin: 127.52px 212.381px;"><g id="freepik--Lamppost--inject-27" class="animable" style="transform-origin: 127.52px 212.381px;"><g id="freepik--freepik--Streetlight--inject-81--inject-27" class="animable" style="transform-origin: 127.52px 212.381px;"><path d="M97.65,351.19h-7V101.39a22.75,22.75,0,0,1,22.73-22.73h6.18v7h-6.18a15.75,15.75,0,0,0-15.73,15.73Z" style="fill: #7D93FE; transform-origin: 105.105px 214.925px;" id="elxpxfvx388fe" class="animable"></path><g id="eleqyeyv2d9yu"><g style="opacity: 0.8; transform-origin: 0px 0px;" class="animable" id="eldh8jbvt3k9"></g></g><path d="M164.37,87.23H114l1.15-7.6a5.88,5.88,0,0,1,4.94-4.93c3.32-.49,7.67-1.08,9.71-1.12,5.95-.13,20.66,1.41,27.84,2.22a5.83,5.83,0,0,1,5,4.43Z" style="fill: #7D93FE; transform-origin: 139.185px 80.4011px;" id="el3859hknibeq" class="animable"></path><path d="M159,92.55H119.3A5.32,5.32,0,0,1,114,87.23h50.39A5.33,5.33,0,0,1,159,92.55Z" style="fill: #7D93FE; transform-origin: 139.195px 89.8902px;" id="elpv14h0gdgng" class="animable"></path><line x1="131.04" y1="103.61" x2="121.59" y2="125.9" style="fill: rgb(255, 255, 255); transform-origin: 126.315px 114.755px;" id="elyye9awz0so" class="animable"></line><path d="M121.59,126.15a.15.15,0,0,1-.09,0,.25.25,0,0,1-.14-.33l9.45-22.29a.25.25,0,0,1,.33-.13.24.24,0,0,1,.13.33L121.82,126A.25.25,0,0,1,121.59,126.15Z" style="fill: #7D93FE; transform-origin: 126.317px 114.768px;" id="elispnq8e8xeb" class="animable"></path><path d="M141.09,140.31a.25.25,0,0,1-.25-.25c0-6.44-.2-12.43-.39-18.22s-.4-11.79-.4-18.23a.25.25,0,0,1,.25-.25.25.25,0,0,1,.25.25c0,6.43.2,12.42.4,18.21s.39,11.8.39,18.24A.25.25,0,0,1,141.09,140.31Z" style="fill: #7D93FE; transform-origin: 140.695px 121.835px;" id="el0jo3umlqeg5n" class="animable"></path><path d="M162,121a.26.26,0,0,1-.2-.1L148,102.77a.24.24,0,0,1,0-.35.25.25,0,0,1,.35,0l13.79,18.13a.24.24,0,0,1,0,.35A.3.3,0,0,1,162,121Z" style="fill: #7D93FE; transform-origin: 155.07px 111.674px;" id="elf2cpk3lozj7" class="animable"></path></g></g></g><g id="freepik--Fence--inject-27" class="animable" style="transform-origin: 249.76px 325.325px;"><rect x="41.24" y="303.93" width="8.83" height="47.3" style="fill: rgb(38, 50, 56); transform-origin: 45.655px 327.58px;" id="el9t8wzjkxw75" class="animable"></rect><g id="elp8rchdlyam"><rect x="41.24" y="303.93" width="8.83" height="47.3" style="fill: rgb(255, 255, 255); opacity: 0.4; transform-origin: 45.655px 327.58px;" class="animable" id="elseff1yf8vl"></rect></g><g id="elfv63ssr9h2d"><polygon points="41.24 308.44 41.24 310.78 50.07 310.74 50.07 308.44 41.24 308.44" style="opacity: 0.3; transform-origin: 45.655px 309.61px;" class="animable" id="elb4f42otjik9"></polygon></g><rect x="99.55" y="303.93" width="8.83" height="47.3" style="fill: rgb(38, 50, 56); transform-origin: 103.965px 327.58px;" id="elqwfohis8xz" class="animable"></rect><g id="el1cyzjdsdcsr"><rect x="99.55" y="303.93" width="8.83" height="47.3" style="fill: rgb(255, 255, 255); opacity: 0.4; transform-origin: 103.965px 327.58px;" class="animable" id="eln2zs44i5lyp"></rect></g><g id="el0q6r7wriruq"><polygon points="99.55 308.44 99.55 310.78 108.38 310.74 108.38 308.44 99.55 308.44" style="opacity: 0.3; transform-origin: 103.965px 309.61px;" class="animable" id="el2l4mq1rnzne"></polygon></g><rect x="157.86" y="303.93" width="8.83" height="47.3" style="fill: rgb(38, 50, 56); transform-origin: 162.275px 327.58px;" id="eleiwpu20ftrk" class="animable"></rect><g id="ell5wnaipugmf"><rect x="157.86" y="303.93" width="8.83" height="47.3" style="fill: rgb(255, 255, 255); opacity: 0.4; transform-origin: 162.275px 327.58px;" class="animable" id="elqcnd2sbvya"></rect></g><g id="el5v4vzq1xvnp"><polygon points="157.86 308.44 157.86 310.78 166.69 310.74 166.69 308.44 157.86 308.44" style="opacity: 0.3; transform-origin: 162.275px 309.61px;" class="animable" id="el6x1hjse6c1o"></polygon></g><rect x="216.17" y="303.93" width="8.83" height="47.3" style="fill: rgb(38, 50, 56); transform-origin: 220.585px 327.58px;" id="elzbsenvpwbjm" class="animable"></rect><g id="elt0jh22r9rp9"><rect x="216.17" y="303.93" width="8.83" height="47.3" style="fill: rgb(255, 255, 255); opacity: 0.4; transform-origin: 220.585px 327.58px;" class="animable" id="elx9absdyks2"></rect></g><g id="el6hk47y7im5l"><polygon points="216.17 308.44 216.17 310.78 225 310.74 225 308.44 216.17 308.44" style="opacity: 0.3; transform-origin: 220.585px 309.61px;" class="animable" id="elavj3f9xylzl"></polygon></g><rect x="274.48" y="303.93" width="8.83" height="47.3" style="fill: rgb(38, 50, 56); transform-origin: 278.895px 327.58px;" id="elgxst2x1gz5j" class="animable"></rect><g id="eln459ylxkqrm"><rect x="274.48" y="303.93" width="8.83" height="47.3" style="fill: rgb(255, 255, 255); opacity: 0.4; transform-origin: 278.895px 327.58px;" class="animable" id="el6bl56iql03y"></rect></g><g id="elnkd6z7l20k"><polygon points="274.49 308.44 274.49 310.78 283.31 310.74 283.31 308.44 274.49 308.44" style="opacity: 0.3; transform-origin: 278.9px 309.61px;" class="animable" id="elwwe5d874eqe"></polygon></g><rect x="332.8" y="303.93" width="8.83" height="47.3" style="fill: rgb(38, 50, 56); transform-origin: 337.215px 327.58px;" id="elnudpgahremg" class="animable"></rect><g id="el5oab1h3br9"><rect x="332.8" y="303.93" width="8.83" height="47.3" style="fill: rgb(255, 255, 255); opacity: 0.4; transform-origin: 337.215px 327.58px;" class="animable" id="el612tp3j6yzt"></rect></g><g id="elkjvfpj8rbd7"><polygon points="332.8 308.44 332.8 310.78 341.63 310.74 341.63 308.44 332.8 308.44" style="opacity: 0.3; transform-origin: 337.215px 309.61px;" class="animable" id="elzon31n6fk0b"></polygon></g><rect x="391.11" y="303.93" width="8.83" height="47.3" style="fill: rgb(38, 50, 56); transform-origin: 395.525px 327.58px;" id="elx38fbnzjlbf" class="animable"></rect><g id="eleiqoxgrcu7u"><rect x="391.11" y="303.93" width="8.83" height="47.3" style="fill: rgb(255, 255, 255); opacity: 0.4; transform-origin: 395.525px 327.58px;" class="animable" id="ellc1aiddipd"></rect></g><g id="el81zxn1ozvkj"><polygon points="391.11 308.44 391.11 310.78 399.94 310.74 399.94 308.44 391.11 308.44" style="opacity: 0.3; transform-origin: 395.525px 309.61px;" class="animable" id="el9nm45k0l90j"></polygon></g><rect x="449.42" y="303.93" width="8.83" height="47.3" style="fill: rgb(38, 50, 56); transform-origin: 453.835px 327.58px;" id="eljyqhrfxnkhn" class="animable"></rect><g id="elczkz9e7zxzt"><rect x="449.42" y="303.93" width="8.83" height="47.3" style="fill: rgb(255, 255, 255); opacity: 0.4; transform-origin: 453.835px 327.58px;" class="animable" id="elmwbpmmq3zxk"></rect></g><g id="elho7mawrot7h"><polygon points="449.42 308.44 449.42 310.78 458.25 310.74 458.25 308.44 449.42 308.44" style="opacity: 0.3; transform-origin: 453.835px 309.61px;" class="animable" id="ele02hbe5zdzr"></polygon></g><rect x="26.25" y="299.42" width="447.02" height="9.02" style="fill: rgb(38, 50, 56); transform-origin: 249.76px 303.93px;" id="elropbhl3lf79" class="animable"></rect><g id="elab0zxgbk9rt"><rect x="26.25" y="299.42" width="447.02" height="9.02" style="fill: rgb(255, 255, 255); opacity: 0.4; transform-origin: 249.76px 303.93px;" class="animable" id="elyu5fo5p6ha"></rect></g></g><g id="freepik--Plants--inject-27" class="animable" style="transform-origin: 235.815px 334.482px;"><path d="M442,341.39c-.74-2.19-6.79,1.53-6.79,1.53s9.7-10,6.31-11.83-9,8.15-9,8.15,9.63-20.66,4.35-21.43-8.38,20.58-8.38,20.58,1.07-15.79-2.46-14.46-2,15.85-2,15.85-3.46-6.24-4.42-3.62,7.1,15.11,7.1,15.11C432.72,348.88,442.69,343.58,442,341.39Z" style="fill: #7D93FE; transform-origin: 430.885px 334.53px;" id="el3ycnzro0whf" class="animable"></path><g id="elard0u5ul9nq"><path d="M426.69,351.65h-.07a.25.25,0,0,1-.17-.31c0-.1,2.81-9.62,4.87-15.94a.25.25,0,0,1,.31-.16.24.24,0,0,1,.16.32c-2.05,6.31-4.83,15.82-4.86,15.92A.25.25,0,0,1,426.69,351.65Z" style="opacity: 0.3; transform-origin: 429.123px 343.44px;" class="animable" id="elmqaxkv43qs"></path></g><g id="elrqq06ekp1km"><path d="M428.53,345.35a.25.25,0,0,1-.24-.21l-1.18-6.22a.25.25,0,0,1,.2-.29.25.25,0,0,1,.29.2l1.18,6.22a.26.26,0,0,1-.2.29Z" style="opacity: 0.3; transform-origin: 427.944px 341.988px;" class="animable" id="elzhupt2kfmlh"></path></g><path d="M52.72,333.92c-1.86-1.38-4.69,5.14-4.69,5.14s2.24-13.73-1.6-13.31-2.67,11.8-2.67,11.8-3.94-22.44-8.71-20.06S40,339.17,40,339.17s-8.17-13.56-10.3-10.45,7.45,14.13,7.45,14.13-6.41-3.13-5.7-.44,14.48,8.32,14.48,8.32C49.44,345.34,54.58,335.29,52.72,333.92Z" style="fill: #7D93FE; transform-origin: 41.2525px 334.022px;" id="elux74uvfo8ag" class="animable"></path><g id="elfrrrevz384m"><path d="M45.94,351.11a.23.23,0,0,1-.23-.17c0-.09-3.21-9.49-5.14-15.85a.25.25,0,0,1,.48-.15c1.93,6.36,5.1,15.75,5.13,15.84a.25.25,0,0,1-.16.32Z" style="opacity: 0.3; transform-origin: 43.3762px 342.937px;" class="animable" id="el7uesovkwbsu"></path></g><g id="elnxk2rj8klrh"><path d="M43.84,344.89a.23.23,0,0,1-.17-.07l-4.53-4.42a.25.25,0,0,1,0-.36.25.25,0,0,1,.35,0L44,344.46a.24.24,0,0,1,0,.35A.25.25,0,0,1,43.84,344.89Z" style="opacity: 0.3; transform-origin: 41.5696px 342.429px;" class="animable" id="el54kgdj813tg"></path></g></g><g id="freepik--Lines--inject-27" class="animable" style="transform-origin: 270.945px 261.27px;"><path d="M417.55,274.48H361.41a.25.25,0,0,1-.25-.25.25.25,0,0,1,.25-.25h56.14a.25.25,0,0,1,.25.25A.25.25,0,0,1,417.55,274.48Z" style="fill: rgb(38, 50, 56); transform-origin: 389.48px 274.23px;" id="elan39vzseezm" class="animable"></path><path d="M389.62,281.18H355.54a.25.25,0,0,1,0-.5h34.08a.25.25,0,0,1,0,.5Z" style="fill: rgb(38, 50, 56); transform-origin: 372.58px 280.93px;" id="elhbinxodqltp" class="animable"></path><path d="M186.35,241.86H130.21a.25.25,0,0,1,0-.5h56.14a.25.25,0,1,1,0,.5Z" style="fill: rgb(38, 50, 56); transform-origin: 158.28px 241.61px;" id="el7obcwi959lo" class="animable"></path><path d="M158.42,248.73H124.34a.25.25,0,0,1,0-.5h34.08a.25.25,0,0,1,0,.5Z" style="fill: rgb(38, 50, 56); transform-origin: 141.38px 248.48px;" id="elohxhgpaukrk" class="animable"></path></g><g id="freepik--Character--inject-27" class="animable" style="transform-origin: 250.01px 317.96px;"><path d="M231.11,209.16s-4.21-4.54-7.35-15.33c0,0-.62.08-.63.07-.44-1.5-.8-2.92-1.08-4.17a.12.12,0,0,0,0,0l-7.57,15.6c2.14,2.73,4.66,9,5.55,11.79,0,0,1.15,5.31,7,1.86C231.28,216.42,231.11,209.16,231.11,209.16Z" style="fill: rgb(205, 122, 99); transform-origin: 222.795px 204.938px;" id="elnjydaxh26x" class="animable"></path><g id="elv2pnmcufesi"><path d="M216.84,209.51l6.15-6.16c.76,2.64.46,6.54-4.39,9.92A25.84,25.84,0,0,0,216.84,209.51Z" style="opacity: 0.2; transform-origin: 220.073px 208.31px;" class="animable" id="el73efybv052c"></path></g><path d="M192.19,189.22c.36,3.81,3.86,10.48,7.62,6.25S191.57,182.67,192.19,189.22Z" style="fill: rgb(38, 50, 56); transform-origin: 196.354px 191.831px;" id="el7nwf5ht8m36" class="animable"></path><path d="M218.29,183.57c4.17,8.43,6.69,13.1,5,19.61-2.63,9.78-14.55,11.78-21.18,4.75-6-6.34-11.78-19.06-5.6-26.81A13,13,0,0,1,218.29,183.57Z" style="fill: rgb(205, 122, 99); transform-origin: 208.841px 194.203px;" id="el547p15mri6q" class="animable"></path><path d="M214.11,173.22c-3.69-3.85-15.37,2.52-17.2,6.61-.27.61,8.31.14,7.82.22l3.76-.71c.42-.38,1.69-.36,3,.86,0,0,3.74,9.31,9.36,10.89,2.6-3.66,2.74-5.66,1.95-9.12C221.66,176.81,217.37,174.65,214.11,173.22Z" style="fill: rgb(38, 50, 56); transform-origin: 210.064px 181.56px;" id="elfd00u3jfhnn" class="animable"></path><path d="M208,192.6c.48.84.42,1.76-.13,2.07s-1.38-.12-1.86-.95-.42-1.76.13-2.07S207.5,191.77,208,192.6Z" style="fill: rgb(38, 50, 56); transform-origin: 207.005px 193.16px;" id="eljpyh4atxf1" class="animable"></path><path d="M199.9,197.45c.48.84.42,1.76-.13,2.07s-1.38-.12-1.86-1-.42-1.76.13-2.07S199.42,196.62,199.9,197.45Z" style="fill: rgb(38, 50, 56); transform-origin: 198.905px 197.988px;" id="eln9kp5s4lh89" class="animable"></path><path d="M202.29,195.47s-.26,5.65-.14,7.82c1.76.39,3.48-1.24,3.48-1.24Z" style="fill: rgb(173, 99, 89); transform-origin: 203.874px 199.41px;" id="elhxl3xtwgu3" class="animable"></path><path d="M207.76,187.51a.46.46,0,0,1-.42.17,3.62,3.62,0,0,0-3.12.95.45.45,0,0,1-.68-.59,4.52,4.52,0,0,1,3.93-1.25.44.44,0,0,1,.38.51A.4.4,0,0,1,207.76,187.51Z" style="fill: rgb(38, 50, 56); transform-origin: 205.643px 187.756px;" id="el9enfc13nctk" class="animable"></path><path d="M213.45,197.24,208.11,204a11.47,11.47,0,0,0,2.78,1.22,3.52,3.52,0,0,0,2.76-.51,3.65,3.65,0,0,0,1.72-3.63A8.35,8.35,0,0,0,213.45,197.24Z" id="el1hp2j74wrmt" class="animable" style="transform-origin: 211.758px 201.275px;"></path><path d="M208.54,203.47s1,.55,1.53.4,4.27-5.4,4.27-5.4l-.89-1.23Z" style="fill: rgb(255, 255, 255); transform-origin: 211.44px 200.568px;" id="el86rurnvj3cn" class="animable"></path><path d="M212.7,205.16a3.56,3.56,0,0,1,.6-2.91,3.73,3.73,0,0,1,2-1.66,3.76,3.76,0,0,1-.5,3.06A3.49,3.49,0,0,1,212.7,205.16Z" style="fill: rgb(222, 87, 83); transform-origin: 214.019px 202.875px;" id="elyjolvqfaixn" class="animable"></path><path d="M194.27,196a.57.57,0,0,1-.26,0,.45.45,0,0,1-.31-.56,4.45,4.45,0,0,1,2.73-3,.45.45,0,0,1,.56.3.44.44,0,0,1-.29.56,3.43,3.43,0,0,0-2.13,2.43A.47.47,0,0,1,194.27,196Z" style="fill: rgb(38, 50, 56); transform-origin: 195.347px 194.218px;" id="elwr1dnxcje4p" class="animable"></path><path d="M186.4,198.29a12.65,12.65,0,0,0,6.11-.13c1.08-.38,5.09-4,5.09-4s11.21-10.81,13.18-10.63,6.21,7,6.21,7l.37-.12,6.95-1.27s-.28-3.63-.61-6.24-1.22-8.64-1.22-8.64l-16.62,6.49Z" style="fill: rgb(38, 50, 56); transform-origin: 205.355px 186.431px;" id="elq003b6zgnjl" class="animable"></path><path d="M186.4,198.29a.87.87,0,0,0-.23-1c-2.72-2.67-.86-17.45,10.19-24.65,13.21-8.61,23.11-1.45,25.1,0l1,1.47s-13.21,5.57-14.64,6.57c-4.3,3-13.91,13-17.54,15.75C187.27,198.83,186.4,198.29,186.4,198.29Z" style="fill: #7D93FE; transform-origin: 203.759px 183.406px;" id="elaxda0s0lv0v" class="animable"></path><path d="M225.4,188.51a8.82,8.82,0,0,1-1.26,6.69c-1.73,2.6-4.66,1.54-5.9-1.16-1.12-2.42-1.56-6.7,1-8.36S224.77,185.69,225.4,188.51Z" style="fill: rgb(205, 122, 99); transform-origin: 221.473px 190.857px;" id="ellezfgd8k7bc" class="animable"></path><g id="elees69cbijhm"><path d="M219.93,192.15a.25.25,0,0,1-.23-.15,4.92,4.92,0,0,1-.37-2.51,3.17,3.17,0,0,1,.88-2,2,2,0,0,1,2.15-.42.26.26,0,0,1,.11.34.25.25,0,0,1-.33.11,1.49,1.49,0,0,0-1.59.33,2.76,2.76,0,0,0-.73,1.67,4.36,4.36,0,0,0,.34,2.25.26.26,0,0,1-.13.33Z" style="opacity: 0.2; transform-origin: 220.897px 189.536px;" class="animable" id="el0dm5pv0q0bip"></path></g><path d="M216.31,172.41c-3-.3-6.17,1-9.06,2.46-6.54,3.25-13,7.54-16.82,13.59-.3.47-2.84,4.2-2.43,4.68s2.8-2.79,3.12-3.16a65.27,65.27,0,0,1,17.63-14.06c1.22-.67,2.47-1.3,3.73-1.89C213.32,173.64,215.44,172.32,216.31,172.41Z" style="fill: rgb(38, 50, 56); transform-origin: 202.133px 182.777px;" id="elscnpywncqr" class="animable"></path><path d="M193.36,181a33.17,33.17,0,0,0,2.29-2.46c.07-.09.14-.2.1-.3s-.17-.16-.29-.18a3,3,0,0,0-2,.6,6.91,6.91,0,0,0-2.86,3.73,4,4,0,0,0-.24,1.7c.29.86,1-.17,1.29-.58C192.26,182.72,192.75,181.66,193.36,181Z" style="fill: rgb(38, 50, 56); transform-origin: 193.055px 181.238px;" id="elcsawfg4k6pf" class="animable"></path><path d="M205.78,171.44a4.07,4.07,0,0,0-1.5.24,13.27,13.27,0,0,0-2.81,1.09,14.31,14.31,0,0,0-3.2,2c-.27.23-.47.92-.19,1.15a.65.65,0,0,0,.62,0,54.8,54.8,0,0,0,7.18-3.41c.28-.15.6-.42.5-.72S206,171.46,205.78,171.44Z" style="fill: rgb(38, 50, 56); transform-origin: 202.172px 173.718px;" id="elqetzow5mhdo" class="animable"></path><path d="M215.34,188s6.12,14.82,5.65,16.12c-2,5.4-5.28,7.29-5.28,7.29s.57.32,2.4-1.13,3.89-3.18,4.38-5.06-2.72-9.88-3.18-12.09a62.47,62.47,0,0,0-1.88-6.21Z" style="fill: rgb(38, 50, 56); transform-origin: 218.94px 199.18px;" id="eljsb9oz4buz" class="animable"></path><polygon points="221.7 201.94 224.67 196.71 224.14 195.2 221.29 199.87 221.7 201.94" style="fill: rgb(38, 50, 56); transform-origin: 222.98px 198.57px;" id="eltwc4hn95pin" class="animable"></polygon><path d="M183.42,190.54h0a.26.26,0,0,1-.21-.29,26.8,26.8,0,0,1,6.71-14.44.25.25,0,0,1,.35,0,.26.26,0,0,1,0,.36,26.29,26.29,0,0,0-6.59,14.17A.24.24,0,0,1,183.42,190.54Z" style="fill: #7D93FE; transform-origin: 186.775px 183.14px;" id="eliqa2zj8zr08" class="animable"></path><polygon points="285.22 444.32 281.36 447.6 274.02 444.6 270.25 428.8 284.32 425.75 285.22 444.32" style="fill: rgb(205, 122, 99); transform-origin: 277.735px 436.675px;" id="elqrheje0p8vr" class="animable"></polygon><path d="M272.3,442.84l3.67-.16a2.62,2.62,0,0,1,2.14,1c2.24,2.8,3.79,1.64,6-1.18,1.46-.24,1.92,1.43,2.06,1.87l3.19,9.87a1.56,1.56,0,0,1-1,2,1.8,1.8,0,0,1-.45.09l-12.12.53-17,.75c-4.62.21-5.79-4.41-3.9-4.93,8.48-2.27,14.44-5.06,17-7.67C272.34,444.52,271.82,444.21,272.3,442.84Z" style="fill: #7D93FE; transform-origin: 271.736px 450.047px;" id="el4xv60dfy5p5" class="animable"></path><path d="M273.08,447.91a.23.23,0,0,1-.2-.11,4.21,4.21,0,0,0-3-1.77.25.25,0,0,1-.23-.27.24.24,0,0,1,.28-.22,4.7,4.7,0,0,1,3.39,2,.26.26,0,0,1-.07.35A.24.24,0,0,1,273.08,447.91Z" style="fill: rgb(38, 50, 56); transform-origin: 271.504px 446.727px;" id="elhkvo9utbaw8" class="animable"></path><path d="M270.87,449.72a.23.23,0,0,1-.2-.1,4.18,4.18,0,0,0-3-1.77.25.25,0,0,1-.22-.27.23.23,0,0,1,.27-.22,4.68,4.68,0,0,1,3.39,2,.25.25,0,0,1-.06.35A.28.28,0,0,1,270.87,449.72Z" style="fill: rgb(38, 50, 56); transform-origin: 269.303px 448.543px;" id="el0fx4qs1nojo" class="animable"></path><path d="M268.1,451.29a.25.25,0,0,1-.21-.1,4.17,4.17,0,0,0-3-1.77.25.25,0,0,1-.23-.27.23.23,0,0,1,.27-.22,4.68,4.68,0,0,1,3.39,2,.25.25,0,0,1-.06.35A.23.23,0,0,1,268.1,451.29Z" style="fill: rgb(38, 50, 56); transform-origin: 266.513px 450.113px;" id="elxggfpc5mz1" class="animable"></path><path d="M275,282.14c-1.07,1.28-8.58,73.8-8.58,73.8s-.53,80.44.85,79.5l20.4-.95,6.2-79.23,17.15-71.38s13-19.12,4.19-30.9l-43,10Z" style="fill: rgb(38, 50, 56); transform-origin: 292.296px 344.214px;" id="eld8t03jod8n5" class="animable"></path><g id="elj9swzx6fmxl"><path d="M275,282.14c-1.07,1.28-8.58,73.8-8.58,73.8s-.53,80.44.85,79.5l20.4-.95,6.2-79.23,17.15-71.38s13-19.12,4.19-30.9l-43,10Z" style="opacity: 0.3; transform-origin: 292.296px 344.214px;" class="animable" id="elgo746ig3sm7"></path></g><path d="M272.44,301c.8-.93,39.43-15.31,38.05-14.8S308,296.45,308,296.45l-36.24,9.33Z" id="elivg211f224c" class="animable" style="transform-origin: 291.143px 295.983px;"></path><g id="freepik--freepik--Character--inject-280--inject-27" class="animable" style="transform-origin: 250.01px 367.528px;"><path d="M351.78,340.42a59.26,59.26,0,1,1-59.26,59.26,59.32,59.32,0,0,1,59.26-59.26m0-8.5h0A67.77,67.77,0,0,0,284,399.68h0a67.77,67.77,0,1,0,67.76-67.77Z" style="fill: rgb(38, 50, 56); transform-origin: 351.77px 399.68px;" id="elpu3i3dj736f" class="animable"></path><path d="M351.78,343a56.78,56.78,0,0,1,56.71,56.73h0A56.73,56.73,0,1,1,351.78,343m-64.86,56.73a64.86,64.86,0,1,0,64.86-64.86A64.86,64.86,0,0,0,286.92,399.68Z" style="fill: #7D93FE; transform-origin: 351.78px 399.73px;" id="elmg9clbjjtn" class="animable"></path><path d="M148.21,340.42a59.33,59.33,0,0,1,59.26,59.26h0a59.26,59.26,0,1,1-59.25-59.27m0-8.5A67.76,67.76,0,1,0,216,399.68a67.76,67.76,0,0,0-67.77-67.76Z" style="fill: rgb(38, 50, 56); transform-origin: 148.24px 399.67px;" id="elchl7nyhtiiw" class="animable"></path><path d="M148.22,343a56.79,56.79,0,0,1,56.72,56.73h0A56.73,56.73,0,1,1,148.22,343M83.37,399.68a64.86,64.86,0,1,0,64.85-64.86A64.85,64.85,0,0,0,83.37,399.68Z" style="fill: #7D93FE; transform-origin: 148.23px 399.68px;" id="elx44s0b96d6j" class="animable"></path><g id="el2pxzoyujlxv"><circle cx="351.78" cy="399.68" r="10.45" style="fill: rgb(38, 50, 56); transform-origin: 351.78px 399.68px; transform: rotate(-80.8195deg);" class="animable" id="el3uvd2ub8pg9"></circle></g><g id="elk9yd9yqlnb"><circle cx="148.22" cy="399.68" r="10.45" style="fill: rgb(38, 50, 56); transform-origin: 148.22px 399.68px; transform: rotate(-45deg);" class="animable" id="el4favy2jjwvu"></circle></g><path d="M351.8,392.38a7.27,7.27,0,0,1,1.94,14.26h-.11l-89.44,28.71a12.4,12.4,0,0,1-3,.37A12.59,12.59,0,0,1,258,411l91.63-18.27h.23a7.26,7.26,0,0,1,2-.27h0m0-3.24a10.33,10.33,0,0,0-2.82.4L257.26,407.9A15.78,15.78,0,0,0,261.14,439a16.19,16.19,0,0,0,3.92-.49l89.52-28.71a10.46,10.46,0,0,0-2.78-20.58Z" style="fill: rgb(38, 50, 56); transform-origin: 303.83px 414.11px;" id="el8ziimy5sol" class="animable"></path><path d="M258.65,425.21,168.16,314.42a3.19,3.19,0,0,1,4.93-4l87.19,106.68L315,287.47a3.19,3.19,0,0,1,5.88,2.48L264.1,424.46a3.21,3.21,0,0,1-2.49,1.92h-.46A3.21,3.21,0,0,1,258.65,425.21Z" style="fill: #7D93FE; transform-origin: 244.382px 355.951px;" id="eldx48ghs9u6g" class="animable"></path><path d="M349.85,400.58,307.19,310.5l-.09-.2a2.12,2.12,0,1,1,3.93-1.61l42.67,90.08a2.06,2.06,0,0,1,.21.91,2.13,2.13,0,0,1-4.06.9Z" style="fill: #7D93FE; transform-origin: 330.424px 354.587px;" id="elikopenu3zg" class="animable"></path><path d="M147.43,402.73a3.18,3.18,0,0,1-2.3-3.88L171.41,296.6a3.2,3.2,0,0,1,3.39-2.39l134.6,12.18a3.2,3.2,0,1,1-.57,6.38L176.92,300.84l-25.6,99.63a3.2,3.2,0,0,1-3.1,2.4A3,3,0,0,1,147.43,402.73Z" style="fill: #7D93FE; transform-origin: 228.673px 348.533px;" id="el515y6299z4f" class="animable"></path><path d="M174,300.57h0a3.18,3.18,0,0,1-2.7-3.61l3.86-26.34a3.19,3.19,0,1,1,6.31.93l-3.79,26.32a3.18,3.18,0,0,1-3.19,2.73A2,2,0,0,1,174,300.57Z" style="fill: #7D93FE; transform-origin: 176.391px 284.212px;" id="elf4t5iuj57w5" class="animable"></path><path d="M268.51,457.62l-18.8-67.76a2.13,2.13,0,0,1,4.1-1.14l18.79,67.8a1.87,1.87,0,0,1,.08.57,2.12,2.12,0,0,1-4.17.53Z" style="fill: rgb(38, 50, 56); transform-origin: 261.168px 423.227px;" id="elg45c9jrrrko" class="animable"></path><path d="M244.35,389.29a2.13,2.13,0,0,1,2.13-2.12h18.79a2.13,2.13,0,1,1,0,4.25H246.48A2.13,2.13,0,0,1,244.35,389.29Z" style="fill: rgb(38, 50, 56); transform-origin: 255.948px 389.295px;" id="elwo9s6f61kk" class="animable"></path><path d="M261.83,458.77a2.13,2.13,0,0,1,2.13-2.13h18.78a2.13,2.13,0,1,1,0,4.25H264A2.12,2.12,0,0,1,261.83,458.77Z" style="fill: rgb(38, 50, 56); transform-origin: 273.423px 458.765px;" id="elbvq36fqrc8" class="animable"></path><g id="elaqq29tzcy6p"><g style="opacity: 0.3; transform-origin: 249.469px 347.1px;" class="animable" id="elhehiupzhd67"><path d="M258.65,425.21,168.16,314.42a3.19,3.19,0,0,1,4.93-4l87.19,106.68L315,287.47a3.19,3.19,0,0,1,5.88,2.48L264.1,424.46a3.21,3.21,0,0,1-2.49,1.92h-.46A3.21,3.21,0,0,1,258.65,425.21Z" id="eldkyf7r1q6ug" class="animable" style="transform-origin: 244.382px 355.951px;"></path><path d="M349.85,400.58,307.19,310.5l-.09-.2a2.12,2.12,0,1,1,3.93-1.61l42.67,90.08a2.06,2.06,0,0,1,.21.91,2.13,2.13,0,0,1-4.06.9Z" id="elieyisv83d38" class="animable" style="transform-origin: 330.424px 354.587px;"></path><path d="M147.43,402.73a3.18,3.18,0,0,1-2.3-3.88L171.41,296.6a3.2,3.2,0,0,1,3.39-2.39l134.6,12.18a3.2,3.2,0,1,1-.57,6.38L176.92,300.84l-25.6,99.63a3.2,3.2,0,0,1-3.1,2.4A3,3,0,0,1,147.43,402.73Z" id="elbtxsqz3l40a" class="animable" style="transform-origin: 228.673px 348.533px;"></path><path d="M174,300.57h0a3.18,3.18,0,0,1-2.7-3.61l3.86-26.34a3.19,3.19,0,1,1,6.31.93l-3.79,26.32a3.18,3.18,0,0,1-3.19,2.73A2,2,0,0,1,174,300.57Z" id="el0rfvvkprhdmn" class="animable" style="transform-origin: 176.391px 284.212px;"></path></g></g><path d="M326,276.51c-5,1.95-40.68-.23-43.12,5.32s13.83.83,21,3.19,30.67,10.27,36.23,3.19C349.55,276,336.48,272.38,326,276.51Z" style="fill: #7D93FE; transform-origin: 312.999px 282.982px;" id="eldonpdc3jfz5" class="animable"></path><path d="M98.64,406.54a.38.38,0,0,1-.37-.32,48,48,0,0,1,23.11-49,.37.37,0,1,1,.37.65A47.24,47.24,0,0,0,99,406.1a.36.36,0,0,1-.31.43Z" style="fill: rgb(38, 50, 56); transform-origin: 109.802px 381.856px;" id="elvo1hxnxy7ic" class="animable"></path><path d="M183,424.8a.4.4,0,0,1-.27-.11.38.38,0,0,1,0-.53,24.49,24.49,0,0,0,5.55-9.22,27,27,0,0,0,1.84-10.72.38.38,0,0,1,.75-.07A27.82,27.82,0,0,1,189,415.2a25.33,25.33,0,0,1-5.72,9.48A.39.39,0,0,1,183,424.8Z" style="fill: rgb(38, 50, 56); transform-origin: 186.755px 414.328px;" id="el7zmudype5r" class="animable"></path><path d="M193.67,310.29a1.72,1.72,0,0,1-.39,0l-31.16-5.85a7,7,0,0,1-6.7-8L158.13,277c0-.23.05-.53.07-.87.15-2,.5-6.81,4.69-7.19,2.25-.21,5.1-.43,7.74-.64,3.25-.26,6.94-.55,7.52-.66a2.16,2.16,0,0,1,2.49,1.66,2.11,2.11,0,0,1-1.6,2.5c-.62.14-2.71.31-8.07.74-2.63.21-5.46.43-7.7.64-.39,0-.67,1.13-.83,3.26,0,.44-.06.84-.1,1.15L159.63,297a2.78,2.78,0,0,0,2.73,3.16,2.31,2.31,0,0,1,.37,0l31.33,5.89a2.13,2.13,0,0,1-.39,4.22Z" style="fill: #7D93FE; transform-origin: 175.564px 288.954px;" id="elecmqq3vhvw" class="animable"></path><path d="M392.7,369.44a.38.38,0,0,1-.31-.16,47.23,47.23,0,0,0-49.74-19.11.37.37,0,0,1-.17-.73A48,48,0,0,1,393,368.85a.38.38,0,0,1-.1.52A.33.33,0,0,1,392.7,369.44Z" style="fill: rgb(38, 50, 56); transform-origin: 367.628px 358.796px;" id="ellpu5sdhcm9" class="animable"></path><path d="M348.7,441.81a32.18,32.18,0,0,1-8.44-1.26,25.29,25.29,0,0,1-9.89-5,.38.38,0,0,1,.49-.57,24.49,24.49,0,0,0,9.6,4.85,27,27,0,0,0,10.82,1,.38.38,0,0,1,.44.3.39.39,0,0,1-.31.44A16.09,16.09,0,0,1,348.7,441.81Z" style="fill: rgb(38, 50, 56); transform-origin: 341.001px 438.366px;" id="ele1u8bp5t7h" class="animable"></path><path d="M88.37,358a.33.33,0,0,1-.13,0,.24.24,0,0,1-.08-.34c7.11-11.9,19.49-21.33,34.85-26.54a.25.25,0,0,1,.16.48c-15.25,5.17-27.53,14.51-34.59,26.31A.23.23,0,0,1,88.37,358Z" id="elu9t5ucbqore" class="animable" style="transform-origin: 105.731px 344.557px;"></path></g><path d="M261.13,407.41a15.78,15.78,0,0,0-15.76,15.78h0a15.78,15.78,0,1,0,15.78-15.78Z" style="fill: rgb(38, 50, 56); transform-origin: 261.15px 423.19px;" id="eladibkeaeeig" class="animable"></path><path d="M178.51,275.87l-10,5.08-3.15-4.81s-6.33-1.28-7.83-.3-3.29,4.47-3.29,4.47-2,2.79.69,4.67c0,0-2.11,2.45.9,4.68,0,0-2.52,1.07.73,2.85a10.67,10.67,0,0,0,8.21.76c2.17-.52,6.11-1.8,6.11-1.8l10.45-4.79Z" style="fill: rgb(205, 122, 99); transform-origin: 167.428px 284.616px;" id="elxsmb95jsxr" class="animable"></path><path d="M231.51,244.42c-.46,1.73-16.62,25.43-19.07,27.5-3.24,2.75-36.71,17.18-36.71,17.18L170.46,281l29.48-18.64,17.89-24Z" style="fill: rgb(205, 122, 99); transform-origin: 200.985px 263.73px;" id="elq799sexaj5" class="animable"></path><path d="M219.9,218.66c1-.89,8-14,8-14s4.27-4.05,30.21,6.38c24.81,10,54.71,36.64,54.71,36.64-.32.66-42,16.68-42,16.68l-45.17-24.7Z" style="fill: #7D93FE; transform-origin: 266.36px 234.123px;" id="el1sb1gcjkau4" class="animable"></path><g id="elm3zw5ysr2qg"><path d="M219.9,218.66c1-.89,8-14,8-14s4.27-4.05,30.21,6.38c24.81,10,54.71,36.64,54.71,36.64-.32.66-42,16.68-42,16.68l-45.17-24.7Z" style="fill: rgb(255, 255, 255); opacity: 0.4; transform-origin: 266.36px 234.123px;" class="animable" id="el3274d8t6j4g"></path></g><path d="M218.29,222.8c-4.74,9.15-11.3,25-11.3,25l16.81,12.71c17.06-28.13,16.2-40.7,9.81-44.74C233.61,215.79,226.53,209.6,218.29,222.8Z" style="fill: #7D93FE; transform-origin: 222.41px 237.424px;" id="elpsfsyf2m4m" class="animable"></path><g id="elgs8xst3oe7o"><path d="M218.29,222.8c-4.74,9.15-11.3,25-11.3,25l16.81,12.71c17.06-28.13,16.2-40.7,9.81-44.74C233.61,215.79,226.53,209.6,218.29,222.8Z" style="fill: rgb(255, 255, 255); opacity: 0.4; transform-origin: 222.41px 237.424px;" class="animable" id="el31ubgf2j71m"></path></g><path d="M299.61,252.57c-.49-.35-49.6-34.64-54.29-37.82-4.21-2.85-7.67-2.76-9.83-2.18a7.82,7.82,0,0,0-5.05,3.89c-1.27,2.62-5.88,12.55-9.95,21.31-4.69,10.1-6.76,14.55-6.9,14.78l-.85-.53.43.26-.43-.25c.2-.36,3.43-7.32,6.85-14.68,4.07-8.77,8.68-18.7,9.95-21.33a8.81,8.81,0,0,1,5.69-4.42c3.34-.9,7.12-.07,10.65,2.32,4.69,3.18,53.81,37.48,54.3,37.83Z" style="fill: rgb(255, 255, 255); transform-origin: 256.46px 231.908px;" id="el0kwf6c182ivi" class="animable"></path><g id="elqynrlnlg9f"><path d="M232.85,243.55l5-13.41s-.37,6.43-1,11.45c-.24,1.86-.33,4-.33,4Z" style="opacity: 0.3; transform-origin: 235.35px 237.865px;" class="animable" id="el207uz37xn27"></path></g><polygon points="273.83 376 269.96 379.28 262.63 376.28 253.69 362.15 266.46 355.94 273.83 376" style="fill: rgb(205, 122, 99); transform-origin: 263.76px 367.61px;" id="elk6llxl2vp8" class="animable"></polygon><path d="M260.9,374.51l3.67-.16a2.62,2.62,0,0,1,2.14,1c2.25,2.8,3.79,1.63,6-1.19,1.46-.23,1.93,1.43,2.07,1.88l3.19,9.86a1.58,1.58,0,0,1-1,2,1.44,1.44,0,0,1-.46.08l-12.12.54-17,.75c-4.63.2-5.79-4.42-3.91-4.93,8.49-2.28,14.45-5.07,17-7.68C261,376.19,260.43,375.89,260.9,374.51Z" style="fill: #7D93FE; transform-origin: 260.336px 381.707px;" id="eljrmqcxn9ets" class="animable"></path><path d="M261.69,379.58a.26.26,0,0,1-.21-.11,4.19,4.19,0,0,0-3-1.76.25.25,0,0,1-.23-.27.24.24,0,0,1,.27-.23,4.73,4.73,0,0,1,3.39,2,.25.25,0,0,1-.06.35A.23.23,0,0,1,261.69,379.58Z" style="fill: rgb(38, 50, 56); transform-origin: 260.103px 378.397px;" id="elhmmgy34zcme" class="animable"></path><path d="M259.48,381.4a.23.23,0,0,1-.2-.11,4.2,4.2,0,0,0-3-1.76.25.25,0,0,1-.23-.27.25.25,0,0,1,.28-.23,4.71,4.71,0,0,1,3.39,2,.26.26,0,0,1-.07.35A.23.23,0,0,1,259.48,381.4Z" style="fill: rgb(38, 50, 56); transform-origin: 257.904px 380.218px;" id="el215e4hvmf97" class="animable"></path><path d="M256.71,383a.26.26,0,0,1-.21-.11,4.19,4.19,0,0,0-3-1.76.25.25,0,0,1-.23-.27.24.24,0,0,1,.27-.23,4.66,4.66,0,0,1,3.39,2,.25.25,0,0,1-.06.35A.27.27,0,0,1,256.71,383Z" style="fill: rgb(38, 50, 56); transform-origin: 255.123px 381.816px;" id="elmltkr250dq9" class="animable"></path><path d="M274.65,262.64c-2.37.55-45.92,21.93-55.95,34.22-7.09,8.67-1.89,14.69,3.38,23.65s38,53.63,38,53.63l12.6-5.23-25-59.33,64-23.82a21.53,21.53,0,0,0,8-15.34c.83-10.32-7-22.79-7-22.79Z" style="fill: rgb(38, 50, 56); transform-origin: 267.495px 310.885px;" id="el6dd5ru5ylkf" class="animable"></path><path d="M267.1,371.28c-13.52-25.12-36.19-67.41-36.09-68.41.39-4,57.28-30.21,68.68-35.43.08,0,6.31-2.64,5.62-7.74a58.61,58.61,0,0,0-1.31-7.4l1-.28a56.85,56.85,0,0,1,1.34,7.54c.79,5.88-6.14,8.77-6.21,8.79-25.7,11.78-66.7,31.48-68.06,34.57,1.05,2.85,26.23,49.82,36,67.89ZM232,302.83Z" style="fill: #7D93FE; transform-origin: 268.706px 311.65px;" id="el7hrr9y5k7n3" class="animable"></path></g><defs>     <filter id="active" height="200%">         <feMorphology in="SourceAlpha" result="DILATED" operator="dilate" radius="2"></feMorphology>                <feFlood flood-color="#32DFEC" flood-opacity="1" result="PINK"></feFlood>        <feComposite in="PINK" in2="DILATED" operator="in" result="OUTLINE"></feComposite>        <feMerge>            <feMergeNode in="OUTLINE"></feMergeNode>            <feMergeNode in="SourceGraphic"></feMergeNode>        </feMerge>    </filter>    <filter id="hover" height="200%">        <feMorphology in="SourceAlpha" result="DILATED" operator="dilate" radius="2"></feMorphology>                <feFlood flood-color="#ff0000" flood-opacity="0.5" result="PINK"></feFlood>        <feComposite in="PINK" in2="DILATED" operator="in" result="OUTLINE"></feComposite>        <feMerge>            <feMergeNode in="OUTLINE"></feMergeNode>            <feMergeNode in="SourceGraphic"></feMergeNode>        </feMerge>            <feColorMatrix type="matrix" values="0   0   0   0   0                0   1   0   0   0                0   0   0   0   0                0   0   0   1   0 "></feColorMatrix>    </filter></defs></svg>